<?xml version="1.0" encoding="UTF-8"?>
<svg xmlns="http://www.w3.org/2000/svg" width="64" height="64" xmlns:xlink="http://www.w3.org/1999/xlink" viewBox="0 0 64 64">
  <rect x="0" y="0" width="64" height="64" rx="8" fill="#cdeb9b"/>
  <path d="M28.6,55.01l-8.59-28.27h5.19l6.19,23.39h-.95l7.42-23.39h4.24l7.47,23.39h-.95l6.14-23.39h4.96l-8.59,28.27h-4.29l-7.42-22.95h1l-7.59,22.95h-4.24Z" fill="#174736"/>
  <path d="M9.22,54.59c-.39.39-.91.6-1.46.6h-1.51c-.55,0-1.07-.22-1.46-.6-.39-.39-.6-.91-.6-1.46v-1.51c0-.55.22-1.07.6-1.46.39-.39.91-.6,1.46-.6h1.51c.55,0,1.07.22,1.46.6.39.39.6.91.6,1.46v1.51c0,.55-.22,1.07-.6,1.46Z" fill="#174736"/>
  <path d="M59.45,14.04c-.39.39-.91.6-1.46.6h-1.51c-.55,0-1.07-.22-1.46-.6-.39-.39-.6-.91-.6-1.46v-1.51c0-.55.22-1.07.6-1.46.39-.39.91-.6,1.46-.6h1.51c.55,0,1.07.22,1.46.6.39.39.6.91.6,1.46v1.51c0,.55-.22,1.07-.6,1.46Z" fill="#174736"/>
  <path d="M9.2,14.04c-.39.39-.91.6-1.46.6h-1.51c-.55,0-1.07-.22-1.46-.6-.39-.39-.6-.91-.6-1.46v-1.51c0-.55.22-1.07.6-1.46.39-.39.91-.6,1.46-.6h1.51c.55,0,1.07.22,1.46.6.39.39.6.91.6,1.46v1.51c0,.55-.22,1.07-.6,1.46Z" fill="#174736"/>
</svg>